<?xml version="1.0" encoding="UTF-8"?><svg xmlns="http://www.w3.org/2000/svg" viewBox="0 0 96 32"><defs><style>.c{stroke:#b5ffd9;}.c,.d{fill:none;stroke-miterlimit:10;stroke-width:3px;}.d{stroke:#c39;}.e{fill:#b5ffd9;}.f{fill:#c39;}</style></defs><g id="a"><g><path class="f" d="M8.38,4.01l3.41,4.39c.62,.8,.52,1.94-.22,2.62l-1.75,1.6c-.78,.71-.94,1.89-.36,2.77,2.05,3.12,4.57,5.6,7.53,7.5,.89,.58,2.07,.43,2.79-.35l1.61-1.76c.69-.75,1.84-.84,2.63-.21l4.39,3.47c.99,.78,.98,2.28-.02,3.05l-3.78,2.93c-1.28,.99-2.98,1.27-4.5,.73C11.34,27.6,5.08,21.6,1.61,12.36c-.59-1.57-.3-3.33,.74-4.64l2.99-3.74c.78-.98,2.27-.97,3.04,.02Z"/><path class="d" d="M16.7,7.88c4.92,.62,7.1,3.48,7.51,7.78"/><path class="d" d="M16.65,2.56c8.06,1.34,12.49,5.67,13.04,13.17"/></g><g><path class="e" d="M67.17,5.73h25.58l-11.27,11.06c-.83,.81-2.15,.81-2.97,0l-11.34-11.07Z"/><path class="e" d="M65.33,6.99V24.91l7.98-8.33c.49-.51,.48-1.32-.03-1.81l-7.95-7.78Z"/><path class="e" d="M94.66,24.62V6.7l-7.98,8.33c-.49,.51-.48,1.32,.03,1.81l7.95,7.78Z"/><path class="e" d="M92.75,25.59h-25.58l8.25-8.1c.4-.39,1.05-.37,1.43,.04,2.1,2.29,4.03,2.27,6.01,.03,.41-.46,1.07-.58,1.51-.15l8.38,8.18Z"/></g></g><g id="b"><g><path class="f" d="M8.38,4.01l3.41,4.39c.62,.8,.52,1.94-.22,2.62l-1.75,1.6c-.78,.71-.94,1.89-.36,2.77,2.05,3.12,4.57,5.6,7.53,7.5,.89,.58,2.07,.43,2.79-.35l1.61-1.76c.69-.75,1.84-.84,2.63-.21l4.39,3.47c.99,.78,.98,2.28-.02,3.05l-3.78,2.93c-1.28,.99-2.98,1.27-4.5,.73C11.34,27.6,5.08,21.6,1.61,12.36c-.59-1.57-.3-3.33,.74-4.64l2.99-3.74c.78-.98,2.27-.97,3.04,.02Z"/><path class="d" d="M16.7,7.88c4.92,.62,7.1,3.48,7.51,7.78"/><path class="d" d="M16.65,2.56c8.06,1.34,12.49,5.67,13.04,13.17"/></g><g><path class="e" d="M8.38,4.01l3.41,4.39c.62,.8,.52,1.94-.22,2.62l-1.75,1.6c-.78,.71-.94,1.89-.36,2.77,2.05,3.12,4.57,5.6,7.53,7.5,.89,.58,2.07,.43,2.79-.35l1.61-1.76c.69-.75,1.84-.84,2.63-.21l4.39,3.47c.99,.78,.98,2.28-.02,3.05l-3.78,2.93c-1.28,.99-2.98,1.27-4.5,.73C11.34,27.6,5.08,21.6,1.61,12.36c-.59-1.57-.3-3.33,.74-4.64l2.99-3.74c.78-.98,2.27-.97,3.04,.02Z"/><path class="c" d="M16.7,7.88c4.92,.62,7.1,3.48,7.51,7.78"/><path class="c" d="M16.65,2.56c8.06,1.34,12.49,5.67,13.04,13.17"/></g><path class="e" d="M48,.81c-6.45,0-11.68,5.23-11.68,11.68,0,3.73,1.75,7.05,4.47,9.19l7.15,9.39,7.18-9.31c2.78-2.14,4.57-5.49,4.57-9.27,0-6.45-5.23-11.68-11.68-11.68Zm0,16.99c-3,0-5.44-2.44-5.44-5.44s2.44-5.44,5.44-5.44,5.44,2.44,5.44,5.44-2.44,5.44-5.44,5.44Z"/></g></svg>