<?xml version="1.0" encoding="UTF-8"?><svg xmlns="http://www.w3.org/2000/svg" viewBox="0 0 138 46"><defs><style>.e{fill:#b5ffd9;}.f,.g{fill:none;stroke:#b5ffd9;stroke-linejoin:round;stroke-width:3px;}.g{stroke-linecap:round;}</style></defs><g id="a"/><g id="b"><g id="c"><path class="e" d="M29.07,37.34c.66,0,1.19,.54,1.19,1.19v2.47H14.79v-2.47c0-.66,.54-1.19,1.19-1.19h13.09m0-3H15.99c-2.32,0-4.19,1.88-4.19,4.19v4.47c0,.55,.45,1,1,1h19.47c.55,0,1-.45,1-1v-4.47c0-2.32-1.88-4.19-4.19-4.19h0Z"/><path class="f" d="M30.24,13h9.71c.86,0,1.35,.87,.85,1.5l-8.3,10.35-8.27,10.31c-.61,.76-1.86,.76-2.46,0l-8.27-10.31L5.2,14.5c-.5-.62,0-1.5,.85-1.5h7.89"/><g id="d"><polygon class="g" points="22.53 4 13.94 7.84 13.94 17.35 22.62 21.15 31.12 17.35 31.12 7.84 22.53 4"/><path class="g" d="M22.53,19.13v-6.57c0-.53-.3-1-.77-1.2l-6.08-2.66c-.83-.36-1.74,.27-1.74,1.2v6.57c0,.53,.3,1,.77,1.2l6.08,2.66c.83,.36,1.74-.27,1.74-1.2Z"/><path class="g" d="M29.33,8.59l-6.03,2.7c-.47,.21-.77,.69-.77,1.22v6.7c0,.96,.94,1.6,1.79,1.22l6.03-2.7c.47-.21,.77-.69,.77-1.22v-6.7c0-.96-.94-1.6-1.79-1.22Z"/></g></g><g><rect class="e" x="63.4" y="13.19" width="3.53" height="10.93"/><rect class="e" x="73.47" y="13.19" width="3.53" height="10.93"/><path class="e" d="M52,2.75l-3,6.8v28.48h9.94v5.96h4.97l6.13-5.96h8.46l10.26-11.02,.24-24.26H52Zm32.78,24.11l-6.26,6.19h-10.43l-5.74,5.95v-5.95h-8.35V6.23h30.78V26.86Z"/></g><g><path class="g" d="M128.38,3.6c1.42,.99,2.5,2.26,3.24,3.81"/><path class="g" d="M100.62,3.6c-1.42,.99-2.5,2.26-3.24,3.81"/><rect class="g" x="107.16" y="9.5" width="15" height="24.5" rx="7.5" ry="7.5"/><path class="g" d="M108.12,42.18c4.33-3.19,8.67-3.19,13,0"/><line class="g" x1="114.63" y1="39.79" x2="114.62" y2="35"/><line class="g" x1="112.66" y1="24.5" x2="116.66" y2="24.5"/><path class="g" d="M119.93,5.12c4.74,2.17,7.38,5.56,7.72,10.46"/><path class="g" d="M109.61,5.41c-4.53,1.65-7.26,5.13-7.72,10.46"/></g></g></svg>